<svg xmlns="http://www.w3.org/2000/svg" xmlns:xlink="http://www.w3.org/1999/xlink" width="106" height="43" viewBox="0 0 106 43">
    <defs>
        <path id="a" d="M28.115.407c-.353.01-.689.143-1.009.401-.32.259-.495.678-.526 1.258-.033.603-.14 1.502-.32 2.694a126.471 126.471 0 0 0-.523 3.856c-.331-.397-.731-.61-1.199-.635-.066-.004-.131-.008-.196-.009-.785-.021-1.471.17-2.058.571a5.042 5.042 0 0 0-1.555 1.714 7.306 7.306 0 0 0-.684 1.659c-.111.311-.27.675-.482 1.093-.223.44-.461.858-.717 1.254a9.106 9.106 0 0 1-.76 1.025c-.25.288-.446.439-.588.454h-.016c-.11-.003-.18-.168-.208-.497a8.753 8.753 0 0 1-.011-1.217c.023-.468.075-.933.157-1.396.082-.462.164-.805.247-1.03.134-.323.11-.561-.072-.711-.155-.127-.355-.193-.6-.199-.044-.001-.089 0-.136.002-.309.02-.634.111-.974.276a2.29 2.29 0 0 0-.814.639 10.5 10.5 0 0 0-.833 1.396 13.064 13.064 0 0 0-.744 1.816 4.791 4.791 0 0 1 .061-.921c.053-.377.126-.78.218-1.208.091-.429.189-.859.292-1.289.104-.43.188-.817.252-1.159.065-.368-.03-.623-.284-.766a1.228 1.228 0 0 0-.578-.152 1.687 1.687 0 0 0-.327.024c-.349.058-.696.225-1.043.5-.346.275-.567.657-.661 1.147a8.78 8.78 0 0 0-.219 1.645c-.003.035-.003.07-.005.105v.004c-.062.27-.187.667-.378 1.19-.19.523-.399 1.047-.626 1.574-.227.526-.451.986-.671 1.379-.221.394-.403.598-.547.613l-.03.001c-.174-.004-.279-.208-.318-.612a8.92 8.92 0 0 1 .017-1.548c.05-.605.133-1.239.247-1.899.114-.66.228-1.213.344-1.658.063-.319.015-.585-.143-.799a1.213 1.213 0 0 0-.626-.443 1.59 1.59 0 0 0-.45-.076 1.774 1.774 0 0 0-.374.03 1.24 1.24 0 0 0-.739.435 2.926 2.926 0 0 0-.597-.738 1.54 1.54 0 0 0-.866-.387 4.136 4.136 0 0 0-.268-.016c-.775-.02-1.453.2-2.035.659-.648.511-1.176 1.174-1.584 1.988a9.33 9.33 0 0 0-.854 2.694 9.811 9.811 0 0 0-.08 2.791c.108.879.353 1.635.735 2.267.383.632.918 1.007 1.608 1.128.063.009.128.014.195.016.335.008.718-.079 1.145-.264a3.625 3.625 0 0 0 1.343-1.162 6.986 6.986 0 0 0 .862-1.651c.282.617.767.986 1.454 1.107a1.631 1.631 0 0 0 1.21-.268 4.28 4.28 0 0 0 1.046-1.023c.318-.427.602-.91.853-1.451l.065-.144c-.006.502-.028.942-.065 1.311-.042.362.065.614.321.755.194.108.409.164.642.17a1.991 1.991 0 0 0 1.127-.335c.281-.184.453-.434.516-.75.037-.29.114-.651.23-1.08.115-.43.241-.844.379-1.24a9.86 9.86 0 0 1 .423-1.047c.145-.302.278-.482.4-.543.042.116.039.398-.005.844-.045.447-.032.899.041 1.358.072.458.248.858.528 1.199.22.269.569.41 1.045.422a3.18 3.18 0 0 0 .405-.018c.404-.041.829-.292 1.277-.755.448-.463.862-.987 1.246-1.574.054-.084.105-.168.157-.251l.01.073c.115.762.358 1.415.73 1.96.372.544.895.864 1.571.96.099.028.204.043.316.046.3.008.645-.077 1.031-.256a3.483 3.483 0 0 0 1.224-.909c.336-.39.61-.821.823-1.294.125.7.324 1.253.594 1.663.231.351.558.531.985.541.073.002.149 0 .229-.009.726-.075 1.368-.425 1.926-1.05a8.987 8.987 0 0 0 1.388-2.076c.368-.759.653-1.492.855-2.201.203-.707.334-1.183.395-1.426.06-.243.041-.432-.056-.564a.537.537 0 0 0-.435-.236.715.715 0 0 0-.397.122c-.157.099-.277.272-.361.518-.06.243-.181.629-.361 1.157a23.134 23.134 0 0 1-.631 1.629c-.241.558-.484 1.05-.729 1.479-.244.427-.471.651-.683.673a.18.18 0 0 1-.033.001c-.214-.006-.346-.293-.391-.863-.051-.601-.049-1.377.003-2.332.052-.956.144-2 .275-3.133.132-1.134.28-2.234.443-3.301.164-1.068.314-2.01.453-2.826.139-.817.238-1.372.302-1.666.092-.392.009-.697-.249-.913a1.315 1.315 0 0 0-.835-.31l-.041-.001-.041.001zm-5.133 16.168l-.021-.001c-.305-.016-.529-.2-.675-.554-.146-.353-.223-.797-.231-1.332a8.54 8.54 0 0 1 .16-1.713 8.169 8.169 0 0 1 .492-1.677 4.39 4.39 0 0 1 .789-1.278c.291-.319.609-.474.953-.465a.938.938 0 0 1 .076.005c.257.022.442.195.553.518.112.323.183.65.213.98.04.568-.005 1.18-.132 1.835a9.418 9.418 0 0 1-.535 1.802c-.229.545-.487.999-.775 1.361-.276.347-.559.519-.849.519h-.018zM3.843 19.726l-.018-.001c-.311-.015-.536-.232-.673-.65-.139-.417-.213-.932-.223-1.544-.01-.612.042-1.266.156-1.965.114-.697.28-1.347.498-1.947.218-.601.486-1.091.803-1.474.298-.357.625-.532.982-.523a.79.79 0 0 1 .068.003c.263.023.453.222.568.595.115.374.188.765.219 1.172a8.622 8.622 0 0 1-.148 2.126 12.775 12.775 0 0 1-.558 2.055c-.231.623-.492 1.142-.786 1.555-.283.399-.574.598-.872.598h-.016z"/>
        <path id="c" d="M12.27.831a.488.488 0 0 0-.487.488V7.78H4.45V1.319a.488.488 0 0 0-.487-.488H.912a.506.506 0 0 0-.488.488v16.973c0 .258.231.488.488.488h3.051c.281 0 .487-.23.487-.488v-6.743h7.333v6.743c0 .258.205.488.487.488h3.052c.255 0 .487-.23.487-.488V1.319a.506.506 0 0 0-.487-.488H12.27z"/>
        <path id="e" d="M.703.831a.488.488 0 0 0-.487.488v16.973c0 .258.205.488.487.488h10.615c.282 0 .487-.23.487-.488v-2.794a.487.487 0 0 0-.487-.487H4.215v-3.462h5.847a.487.487 0 0 0 .487-.486V8.268a.506.506 0 0 0-.487-.488H4.215V4.602h7.103a.488.488 0 0 0 .487-.488V1.319a.488.488 0 0 0-.487-.488H.703z"/>
        <path id="g" d="M.594 5.678c0 3.077 2.769 4.795 4.974 5.666 1.743.692 2.641 1.513 2.641 2.59 0 .897-.744 1.539-1.77 1.539-1.692 0-3.538-1.359-3.64-1.411-.18-.128-.666-.18-.871.154L.722 16.344c-.206.359-.128.461.128.718.59.59 2.436 1.975 5.769 1.975 3.769 0 6.052-2.667 6.052-5.309 0-3.486-3.18-5.05-5.18-5.845-2.026-.82-2.795-1.538-2.795-2.488 0-.691.692-1.306 1.615-1.306 1.565 0 3.436 1.409 3.666 1.538.231.179.693-.052.872-.333l1.309-1.975c.102-.18.154-.641-.154-.82-.77-.565-2.821-1.923-5.487-1.923C2.568.576.594 3.139.594 5.678z"/>
        <path id="i" d="M12.411.371a.486.486 0 0 0-.487.488V7.32H4.59V.859a.486.486 0 0 0-.486-.488H1.052a.504.504 0 0 0-.487.488v16.973c0 .256.231.487.487.487h3.052a.487.487 0 0 0 .486-.487v-6.743h7.334v6.743c0 .256.205.487.487.487h3.051a.505.505 0 0 0 .487-.487V.859a.504.504 0 0 0-.487-.488h-3.051z"/>
        <path id="k" d="M1.164.371c-.257 0-.462.23-.462.488v16.973c0 .256.205.487.462.487h6.255c4.95 0 9-4.025 9-8.999 0-4.923-4.05-8.949-9-8.949H1.164zM4.702 4.14h2.462c2.897 0 4.999 2.283 4.999 5.18 0 2.923-2.102 5.204-4.999 5.204H4.702V4.14z"/>
        <path id="m" d="M.298 5.217c0 3.077 2.768 4.795 4.973 5.667 1.743.692 2.642 1.513 2.642 2.589 0 .897-.745 1.539-1.77 1.539-1.692 0-3.538-1.36-3.641-1.411-.178-.128-.666-.179-.871.154L.425 15.883c-.205.359-.127.462.129.719.59.589 2.436 1.973 5.769 1.973 3.768 0 6.051-2.666 6.051-5.307 0-3.487-3.179-5.051-5.179-5.846-2.026-.82-2.794-1.538-2.794-2.487 0-.692.691-1.307 1.613-1.307 1.565 0 3.438 1.409 3.668 1.538.23.179.691-.051.872-.333l1.307-1.974c.103-.181.154-.641-.153-.821C10.937 1.473 8.886.115 6.221.115 2.271.115.298 2.678.298 5.217z"/>
        <path id="o" d="M11.594.703a4.783 4.783 0 0 1-1.766 1.526l-.064.03c-.58.25-1.13.371-1.634.357a2.804 2.804 0 0 1-.332-.027l-.031-.005a3.395 3.395 0 0 1-1.495-.653L.82 13.653c-.154.333.052.666.437.666h2.82c.513 0 .794-.307.923-.615l.923-2.051h6.974l.923 2.025c.231.487.436.641.897.641h2.847c.384 0 .589-.333.435-.666L11.819.364a7.654 7.654 0 0 1-.225.339zM9.385 3.934h.025l1.948 4.231H7.461l1.924-4.231z"/>
        <path id="q" d="M9.132.576a.524.524 0 0 0-.437.281L.67 18.113c-.154.334.051.667.436.667h2.82a.977.977 0 0 0 .507-.139c.128-.156.261-.306.401-.449.004-.009.012-.018.015-.027l.924-2.052h6.974l.857 1.881c.189-.362.438-.679.762-.936.5-.397 1.029-.643 1.572-.734a2.55 2.55 0 0 1 1.096.037L9.823.857a.52.52 0 0 0-.435-.281h-.256zm.102 7.82h.025l1.949 4.23H7.311l1.923-4.23z"/>
        <path id="s" d="M15.021.371c-.275.419-.578.82-.912 1.193-.554.621-1.188 1.044-1.89 1.267V9.96h-.025L4.788 2.833A3.358 3.358 0 0 1 3.46 1.554l-.046-.044-.178.188c-.641.663-1.311 1.034-1.991 1.104-.141.014-.274.015-.406.017l.022 15.013c0 .256.231.487.487.487h3.051a.487.487 0 0 0 .488-.487V8.268h.025L15.04 18.447a.748.748 0 0 0 .334.128h.409c.257 0 .488-.205.488-.461V.859a.504.504 0 0 0-.488-.488h-.762z"/>
        <path id="u" d="M1.422.704c-.257 0-.462.23-.462.487v16.974c0 .219.153.411.358.464.121-.285.252-.562.402-.825a6.221 6.221 0 0 1 1.911-2.102 4.216 4.216 0 0 1 1.33-.605V4.473h2.46c2.591 0 4.541 1.826 4.926 4.282.14.376.168.8.066 1.246l-.009.046c-.03.45-.109.881-.234 1.288-.016.091-.031.174-.047.273-.135.795-.286 1.74-.45 2.807a89.358 89.358 0 0 0-.437 3.26l-.027.253c3.207-1.375 5.469-4.561 5.469-8.276 0-4.923-4.051-8.948-9-8.948H1.422z"/>
    </defs>
    <g fill="none" fill-rule="evenodd">
        <g transform="translate(37 7.849)">
            <mask id="b" fill="#fff">
                <use xlink:href="#a"/>
            </mask>
            <path fill="#FCD108" d="M.133 21.765h32.208V-.018H.133z" mask="url(#b)"/>
        </g>
        <path fill="#FEFEFE" d="M.424 1.168C.424.912.655.68.911.68h3.052c.281 0 .486.23.486.487v6.46h7.333v-6.46c0-.256.206-.487.488-.487h3.051c.256 0 .487.23.487.487v16.974a.505.505 0 0 1-.487.487h-3.05a.488.488 0 0 1-.489-.487v-6.744H4.45v6.744a.487.487 0 0 1-.486.487H.911a.505.505 0 0 1-.487-.487V1.168"/>
        <g transform="translate(0 -.151)">
            <mask id="d" fill="#fff">
                <use xlink:href="#c"/>
            </mask>
            <path fill="#FEFEFE" d="M0 19.204h16.233V.407H0z" mask="url(#d)"/>
        </g>
        <path fill="#FEFEFE" d="M20.216 1.168c0-.256.205-.487.487-.487h10.615c.282 0 .487.23.487.487v2.795a.487.487 0 0 1-.487.487h-7.102v3.179h5.846c.256 0 .487.23.487.488v2.794a.487.487 0 0 1-.487.487h-5.846v3.462h7.102c.282 0 .487.23.487.487v2.795a.487.487 0 0 1-.487.487H20.703a.487.487 0 0 1-.487-.487V1.168"/>
        <g transform="translate(20 -.151)">
            <mask id="f" fill="#fff">
                <use xlink:href="#e"/>
            </mask>
            <path fill="#FEFEFE" d="M-.208 19.204H12.23V.407H-.208z" mask="url(#f)"/>
        </g>
        <path fill="#FEFEFE" d="M75.722 16.193l1.205-2.128c.205-.333.692-.282.872-.154.102.052 1.948 1.41 3.64 1.41 1.026 0 1.77-.641 1.77-1.538 0-1.077-.898-1.897-2.64-2.59-2.206-.871-4.975-2.59-4.975-5.666 0-2.54 1.974-5.103 5.922-5.103 2.667 0 4.718 1.359 5.488 1.924.307.179.255.64.154.82L85.85 5.142c-.179.282-.64.513-.872.334-.23-.13-2.102-1.54-3.666-1.54-.923 0-1.615.617-1.615 1.309 0 .948.77 1.667 2.795 2.487 2 .795 5.18 2.359 5.18 5.846 0 2.64-2.282 5.307-6.052 5.307-3.333 0-5.179-1.384-5.769-1.974-.256-.256-.334-.36-.128-.718"/>
        <g transform="translate(75 -.151)">
            <mask id="h" fill="#fff">
                <use xlink:href="#g"/>
            </mask>
            <path fill="#FEFEFE" d="M.169 19.461h12.925V.151H.169z" mask="url(#h)"/>
        </g>
        <path fill="#FEFEFE" d="M13.565 24.707c0-.256.23-.486.487-.486h3.052c.28 0 .486.23.486.486v6.462h7.333v-6.462c0-.256.206-.486.488-.486h3.05c.257 0 .488.23.488.486v16.974a.504.504 0 0 1-.487.486H25.41a.487.487 0 0 1-.488-.486v-6.743H17.59v6.743a.486.486 0 0 1-.486.486h-3.052a.504.504 0 0 1-.487-.486V24.709"/>
        <g transform="translate(13 23.849)">
            <mask id="j" fill="#fff">
                <use xlink:href="#i"/>
            </mask>
            <path fill="#FEFEFE" d="M.141 18.744h16.233V-.053H.141z" mask="url(#j)"/>
        </g>
        <path fill="#FEFEFE" d="M80.164 38.373c2.897 0 5-2.281 5-5.204 0-2.897-2.103-5.18-5-5.18h-2.461v10.384h2.46zm-6.461-13.665c0-.257.205-.487.46-.487h6.257c4.949 0 8.999 4.024 8.999 8.948 0 4.974-4.05 8.998-9 8.998h-6.255c-.256 0-.461-.23-.461-.486V24.709z"/>
        <g transform="translate(73 23.849)">
            <mask id="l" fill="#fff">
                <use xlink:href="#k"/>
            </mask>
            <path fill="#FEFEFE" d="M.278 18.744h16.565V-.053H.278z" mask="url(#l)"/>
        </g>
        <path fill="#FEFEFE" d="M93.426 39.732l1.205-2.128c.205-.333.692-.282.87-.154.104.051 1.95 1.41 3.642 1.41 1.026 0 1.769-.64 1.769-1.538 0-1.077-.897-1.898-2.641-2.59-2.204-.872-4.973-2.589-4.973-5.667 0-2.538 1.973-5.102 5.922-5.102 2.667 0 4.718 1.36 5.488 1.923.307.18.256.641.153.821l-1.307 1.974c-.18.282-.641.513-.872.333-.231-.128-2.103-1.538-3.667-1.538-.922 0-1.614.615-1.614 1.308 0 .948.769 1.666 2.794 2.487 2 .794 5.179 2.36 5.179 5.846 0 2.641-2.282 5.307-6.051 5.307-3.334 0-5.18-1.384-5.77-1.974-.255-.257-.333-.359-.127-.718"/>
        <g transform="translate(93 23.849)">
            <mask id="n" fill="#fff">
                <use xlink:href="#m"/>
            </mask>
            <path fill="#FEFEFE" d="M-.127 19h12.925V-.31H-.127z" mask="url(#n)"/>
        </g>
        <path fill="#FEFEFE" d="M39.461 36.015l1.923-4.231h.026l1.948 4.23h-3.897zm4.358-7.801a9.436 9.436 0 0 1-.225.338 4.783 4.783 0 0 1-1.766 1.526l-.064.03c-.58.25-1.13.37-1.634.358a3.012 3.012 0 0 1-.332-.028l-.03-.005a3.402 3.402 0 0 1-1.497-.652l-5.45 11.72c-.155.334.051.667.435.667h2.82c.513 0 .795-.307.923-.615l.923-2.051h6.975l.922 2.025c.231.488.436.64.898.64h2.846c.385 0 .59-.332.436-.665l-6.18-13.288z"/>
        <g transform="translate(32 27.849)">
            <mask id="p" fill="#fff">
                <use xlink:href="#o"/>
            </mask>
            <path fill="#FEFEFE" d="M.345 14.744h18.13V-.06H.345z" mask="url(#p)"/>
        </g>
        <path fill="#FEFEFE" d="M43.234 8.245h.026l1.948 4.23H41.31l1.923-4.23zM38.433 18.49c.128-.156.26-.307.4-.448l.017-.028.923-2.051h6.974l.857 1.88c.189-.362.438-.68.762-.935.5-.397 1.029-.644 1.573-.735.185-.031.369-.044.545-.04.19.005.373.032.55.077L43.823.707a.518.518 0 0 0-.435-.282h-.257a.523.523 0 0 0-.436.282L34.67 17.963c-.154.333.05.666.436.666h2.82c.208 0 .37-.06.507-.14z"/>
        <g transform="translate(34 -.151)">
            <mask id="r" fill="#fff">
                <use xlink:href="#q"/>
            </mask>
            <path fill="#FEFEFE" d="M.194 19.204h17.264V.151H.194z" mask="url(#r)"/>
        </g>
        <path fill="#FEFEFE" d="M68.784 24.22h-.762c-.276.42-.58.82-.913 1.193-.554.621-1.187 1.044-1.89 1.267v7.13h-.024l-7.407-7.128a3.34 3.34 0 0 1-1.2-1.078c-.044-.065-.086-.133-.128-.2l-.046-.045a8.012 8.012 0 0 1-.178.188c-.64.662-1.31 1.033-1.991 1.104-.141.014-.274.015-.406.016l.023 15.014c0 .256.23.487.486.487H57.4a.487.487 0 0 0 .487-.487v-9.564h.025l10.128 10.18a.764.764 0 0 0 .334.127h.41c.256 0 .487-.205.487-.46V24.706a.504.504 0 0 0-.487-.487"/>
        <g transform="translate(53 23.849)">
            <mask id="t" fill="#fff">
                <use xlink:href="#s"/>
            </mask>
            <path fill="#FEFEFE" d="M.415 19h16.281V-.053H.415z" mask="url(#t)"/>
        </g>
        <path fill="#FEFEFE" d="M62.678.553h-6.256c-.257 0-.462.23-.462.487v16.974c0 .219.153.41.357.464.122-.284.253-.561.403-.825a6.199 6.199 0 0 1 1.911-2.101 4.213 4.213 0 0 1 1.33-.606V4.322h2.46c2.59 0 4.541 1.826 4.926 4.282.14.376.168.8.066 1.245l-.009.048c-.03.449-.109.88-.235 1.287l-.047.273c-.134.795-.286 1.74-.449 2.807a89.358 89.358 0 0 0-.437 3.26l-.027.253c3.207-1.375 5.47-4.56 5.47-8.276 0-4.923-4.053-8.948-9-8.948"/>
        <g transform="translate(55 -.151)">
            <mask id="v" fill="#fff">
                <use xlink:href="#u"/>
            </mask>
            <path fill="#FEFEFE" d="M.536 19.053h16.566V.279H.536z" mask="url(#v)"/>
        </g>
    </g>
</svg>
